<?xml version="1.0" encoding="UTF-8"?>
<!DOCTYPE svg PUBLIC "-//W3C//DTD SVG 1.1//EN" "http://www.w3.org/Graphics/SVG/1.1/DTD/svg11.dtd">
<!-- Creator: CorelDRAW -->
<svg xmlns="http://www.w3.org/2000/svg" xml:space="preserve" width="500mm" height="500mm" version="1.1" style="shape-rendering:geometricPrecision; text-rendering:geometricPrecision; image-rendering:optimizeQuality; fill-rule:evenodd; clip-rule:evenodd"
viewBox="0 0 50000 50000"
 xmlns:xlink="http://www.w3.org/1999/xlink"
 xmlns:xodm="http://www.corel.com/coreldraw/odm/2003">
 <defs>
  <style type="text/css">
   <![CDATA[
    .fil13 {fill:none}
    .fil11 {fill:#FEFEFE}
    .fil12 {fill:#373435}
    .fil1 {fill:#33507C}
    .fil10 {fill:url(#id9)}
    .fil0 {fill:url(#id10)}
    .fil3 {fill:url(#id11)}
    .fil7 {fill:url(#id12)}
    .fil5 {fill:url(#id13)}
    .fil9 {fill:url(#id14)}
    .fil4 {fill:url(#id15)}
    .fil8 {fill:url(#id16)}
    .fil2 {fill:url(#id17)}
    .fil6 {fill:url(#id18)}
   ]]>
  </style>
    <mask id="id0">
  <linearGradient id="id1" gradientUnits="userSpaceOnUse" x1="26691.13" y1="31909.77" x2="26691.35" y2="32770.36">
   <stop offset="0" style="stop-opacity:1; stop-color:white"/>
   <stop offset="1" style="stop-opacity:0; stop-color:white"/>
  </linearGradient>
     <rect style="fill:url(#id1)" x="8279.69" y="32344.14" width="33128.52" height="540.11"/>
    </mask>
    <clipPath id="id2">
     <path d="M21621.26 17115.74l199.55 0 6557.87 0 0 6627.49 0 129.93 -18.56 0 -6738.86 -6738.86 0 -18.56z"/>
    </clipPath>
     <clipPath id="id3">
      <path d="M23413.47 18907.95l93.7 0 3079.3 0 0 3111.99 0 61.01 -8.71 0 -3164.29 -3164.28 0 -8.72z"/>
     </clipPath>
       <mask id="id4">
  <linearGradient id="id5" gradientUnits="userSpaceOnUse" x1="24754.34" y1="20808.18" x2="25203.16" y2="20352.73">
   <stop offset="0" style="stop-opacity:1; stop-color:white"/>
   <stop offset="1" style="stop-opacity:0; stop-color:white"/>
  </linearGradient>
        <rect style="fill:url(#id5)" x="22800.15" y="18429.2" width="4192.54" height="4269.3"/>
       </mask>
     <clipPath id="id6">
      <path d="M21621.26 17115.74l199.55 0 6557.87 0 0 6627.49 0 129.93 -18.56 0 -6738.86 -6738.86 0 -18.56z"/>
     </clipPath>
      <mask id="id7">
  <linearGradient id="id8" gradientUnits="userSpaceOnUse" x1="24476.86" y1="21162.59" x2="25432.69" y2="20192.64">
   <stop offset="0" style="stop-opacity:1; stop-color:white"/>
   <stop offset="1" style="stop-opacity:0; stop-color:white"/>
  </linearGradient>
       <rect style="fill:url(#id8)" x="20326.4" y="16107.45" width="8906.04" height="9069.63"/>
      </mask>
  <linearGradient id="id9" gradientUnits="userSpaceOnUse" x1="30232.75" y1="25327.97" x2="22473.7" y2="23772.19">
   <stop offset="0" style="stop-opacity:1; stop-color:#334F7D"/>
   <stop offset="1" style="stop-opacity:1; stop-color:#0098DA"/>
  </linearGradient>
  <linearGradient id="id10" gradientUnits="userSpaceOnUse" xlink:href="#id9" x1="9988.91" y1="34043.48" x2="8418.32" y2="33952.53">
  </linearGradient>
  <linearGradient id="id11" gradientUnits="userSpaceOnUse" xlink:href="#id9" x1="18830.29" y1="28552.9" x2="16430.89" y2="28165.57">
  </linearGradient>
  <linearGradient id="id12" gradientUnits="userSpaceOnUse" xlink:href="#id9" x1="32209.69" y1="33092.39" x2="28202.51" y2="32083.93">
  </linearGradient>
  <linearGradient id="id13" gradientUnits="userSpaceOnUse" xlink:href="#id9" x1="27473.32" y1="27504.71" x2="24955.59" y2="25486.07">
  </linearGradient>
  <linearGradient id="id14" gradientUnits="userSpaceOnUse" xlink:href="#id9" x1="12011.07" y1="32568.79" x2="10610.47" y2="32287.95">
  </linearGradient>
  <linearGradient id="id15" gradientUnits="userSpaceOnUse" xlink:href="#id9" x1="20369.62" y1="30175.2" x2="19422.06" y2="29985.2">
  </linearGradient>
  <linearGradient id="id16" gradientUnits="userSpaceOnUse" xlink:href="#id9" x1="25312.07" y1="30056.57" x2="25217.95" y2="28349.95">
  </linearGradient>
  <linearGradient id="id17" gradientUnits="userSpaceOnUse" xlink:href="#id9" x1="42935.28" y1="33270.81" x2="38026.54" y2="32637.96">
  </linearGradient>
  <linearGradient id="id18" gradientUnits="userSpaceOnUse" xlink:href="#id9" x1="37720.58" y1="32651.84" x2="35907.42" y2="32396.25">
  </linearGradient>
 </defs>
 <g id="Camada_x0020_1">
  <metadata id="CorelCorpID_0Corel-Layer"/>
  <g id="_2885313901936">
   <g>
    <polygon class="fil0" points="9599.1,30288.54 9599.1,32306.17 8279.69,32306.17 8279.69,28969.08 8298.68,28988.06 "/>
    <path class="fil1" d="M8266.72 28953.26l19.78 0 1068.37 0.02 0 -4.76 1404.13 0c677.92,0 1424.26,-122.17 1952.81,-581.1 17.09,-14.82 33.8,-29.94 50.13,-45.19l7.53 -7.05c443.73,-418.38 604.94,-978.19 604.94,-1582.95 0,-849.81 -306.49,-1385.73 -815.16,-1697.84l-7.94 -4.98 1056.58 -1056.59 12.55 8.67c98.56,67.82 193.92,141.88 285.45,222.85 727.06,643.34 989.7,1521.1 989.7,2468.22 0,1021.02 -341.94,1902.96 -1097.03,2601.6 -10.83,10.03 -21.65,19.91 -32.56,29.74l-11.82 10.58c-804.4,719.3 -1835.05,971.35 -2896.67,971.35l-1245.82 0.03 -12.37 0 -1332.6 -1332.6z"/>
    <path class="fil1" d="M40062.89 26468.67c-219.01,-76.77 -476.79,-109.28 -759.71,-109.28l-954.22 0 0 -816.81 1088.7 0c442.23,0 895.32,65.66 1288.66,262.67l-663.43 663.42z"/>
    <path class="fil2" d="M40117.17 29685.75l1291.05 2617.69 -904.11 0 -1239.47 -2513.08 -818.31 0 0 2513.08 -891.2 0 0 -3315.63 0 -11.37 11.42 0 782.41 0 0 -2.9 857.64 0c414.04,0 869.97,-74.65 1192.76,-354.96 297.82,-258.61 404.72,-613.77 404.72,-998.78 0,-636.64 -281.57,-984.91 -727.31,-1146.15l-13.88 -4.98 663.43 -663.42 13.79 7.04c138.08,70.48 268.64,157.32 388.62,263.47 444.09,392.93 604.54,929.09 604.54,1507.6 0,623.58 -208.79,1162.44 -670.09,1589.09 -271.23,250.83 -592.29,417.49 -946.01,513.3z"/>
    <polygon class="fil3" points="16187.19,26041.53 16188.98,26036.84 16378.51,25542.58 17262.99,25542.58 18239.63,28079.92 18248.42,28102.76 "/>
    <path class="fil1" d="M17730.94 29223.45l-867.03 -2355c-23.9,-67.12 -42.61,-137.33 -58.28,-208.41 -16.76,71.32 -36.83,141.76 -61.74,209.94l-1007.35 2757.13 5.93 0 -298.99 812.11 -7.28 0 -663.07 1864.22 -987.23 0 2401.29 -6261.91 2061.23 2061.23 1616.89 4200.68 -983.4 0 -514.4 -1361.64 2.42 0 -495.94 -1314.69 5.53 0 -148.58 -403.66z"/>
    <polygon class="fil4" points="19317.95,29172.3 19336.06,29172.3 19855.07,29172.3 20131.9,29965.19 20143.19,29997.53 "/>
    <path class="fil1" d="M22147.42 29172.3l-1159.74 3131.14 -936.38 0 -1135.14 -3131.14 401.79 0 825.24 825.23 298.26 854.24c38.81,111.14 68.74,225.48 92.66,341.07 29.03,-118.89 65.53,-236.04 106.57,-350.94l1891.82 -5299.32 959.32 0 -1344.4 3629.72z"/>
    <polygon class="fil5" points="23789.44,25542.58 23795.48,25542.58 27252.47,25542.58 27252.47,26359.39 24655.49,26359.39 24655.49,26399.81 24655.49,26408.64 "/>
    <polygon class="fil1" points="23764.31,29223.45 23764.31,25542.58 23789.44,25542.58 24655.49,26408.64 24655.49,31486.61 27399.63,31486.61 27399.63,32303.44 23764.31,32303.44 "/>
    <polygon class="fil1" points="27707.92,29461.06 27707.92,29442.36 27707.92,25542.58 28599.14,25542.58 28599.14,30330.7 28599.14,30352.29 "/>
    <polygon class="fil6" points="36430.39,30101.17 36432.83,30107.53 37278.05,32303.44 36294.67,32303.44 35780.27,30941.8 35782.69,30941.8 35731.64,30806.46 35729.85,30801.72 "/>
    <path class="fil1" d="M31519.49 31466.74l2271.72 -5924.18 884.46 0 1754.79 4558.62 -700.65 700.59 -443.03 -1174.66 5.52 0 -1015.56 -2758.61c-24.03,-67.22 -42.6,-137.41 -58.4,-208.49 -16.74,71.34 -36.76,141.79 -61.74,210.05l-1007.27 2757.05 6 0 -299.11 812.08 -7.25 0 -663.1 1864.25 -666.38 0 0 -836.7z"/>
    <polygon class="fil7" points="31268.85,32120.35 31275.41,32103.26 31275.41,32303.44 27707.92,32303.44 27707.92,29461.06 28599.14,30352.29 28599.14,31486.61 31268.85,31486.61 "/>
    <polygon class="fil8" points="22865.78,28880.62 26291.98,28880.62 26291.98,29173.86 22865.78,29173.86 "/>
    <g>
     <polygon class="fil1" points="11673.06,32306.17 10456.61,32306.17 10456.61,31089.72 "/>
     <polygon class="fil9" points="10456.61,31086.37 10492.63,31086.37 11676.41,31086.37 11676.41,32282.72 11676.41,32306.17 11673.06,32306.17 10456.61,31089.72 "/>
    </g>
   </g>
   <path class="fil1" style="mask:url(#id0)" d="M9599.1 32884.25l0 -540.11 -1319.41 0 0 540.11 1319.41 0zm2073.96 -540.11l-1216.45 0 0 540.11 1219.8 0 0 -516.66 0 -23.45 -3.35 0zm15726.57 540.11l0 -537.38 -3635.29 0 0 537.38 3635.29 0zm3869.22 -354.3l6.53 17.08 0 -200.16 -3567.45 0 0 537.38 3560.92 0 0 -354.3zm5802.33 354.3l206.85 -537.38 -983.35 0 -203.01 537.38 979.51 0zm-4694.13 0l-191.17 -537.38 -666.4 0 0 537.38 857.57 0zm-11190.33 0l-199.04 -537.38 -936.4 0 -194.8 537.38 1330.24 0zm-6222.46 0l-191.11 -537.38 -987.26 0 206.07 537.38 972.3 0zm4694.19 0l206.86 -537.38 -983.42 0 -203 537.38 979.56 0zm21484.73 0l265.03 -537.38 -904.08 0 -265.03 537.38 904.08 0zm-2696.82 0l0 -537.38 -891.24 0 0 537.38 891.24 0z"/>
   <polygon class="fil10" points="21621.26,17115.74 21820.81,17115.74 28378.68,17115.74 28378.68,23743.23 28378.68,23873.16 28360.12,23873.16 21621.26,17134.3 "/>
   <g style="clip-path:url(#id2)">
    <g>
     <polygon id="_1" class="fil11" points="23413.47,18907.95 23507.17,18907.95 26586.47,18907.95 26586.47,22019.94 26586.47,22080.95 26577.76,22080.95 23413.47,18916.67 "/>
    </g>
    <g style="clip-path:url(#id3)">
     <g>
      <polygon id="_2" class="fil12" style="mask:url(#id4)" points="22810.15,19124.48 23514.33,18439.21 26982.68,22003.23 26278.51,22688.5 "/>
     </g>
    </g>
    <g style="clip-path:url(#id6)">
     <polygon class="fil13" points="23413.47,18907.95 23507.17,18907.95 26586.47,18907.95 26586.47,22019.94 26586.47,22080.95 26577.76,22080.95 23413.47,18916.67 "/>
     <polygon class="fil12" style="mask:url(#id7)" points="20336.39,17576.88 21836.05,16117.48 29222.48,23707.65 27722.82,25167.05 "/>
    </g>
   </g>
   <polygon class="fil13" points="21621.26,17115.74 21820.81,17115.74 28378.68,17115.74 28378.68,23743.23 28378.68,23873.16 28360.12,23873.16 21621.26,17134.3 "/>
  </g>
 </g>
</svg>
